<svg width="176" height="50" viewBox="0 0 176 50" fill="none" xmlns="http://www.w3.org/2000/svg">
<path d="M175.276 0H50V50H175.276V0Z" fill="#111111"/>
<path d="M78.91 34.42V14.01H82.62V30.91H92.09V34.42H78.91Z" fill="#FFF29B"/>
<path d="M106.84 27.05C106.82 27.18 106.81 27.31 106.81 27.42V28.05H96.79C96.79 28.63 96.88 29.17 97.06 29.69C97.24 30.21 97.52 30.64 97.88 30.99C98.15 31.24 98.46 31.46 98.82 31.64C99.17 31.82 99.6 31.91 100.1 31.91C100.62 31.91 101.05 31.86 101.38 31.75C101.72 31.64 102.02 31.46 102.29 31.19C102.64 30.85 102.88 30.42 103.01 29.92H106.46C106.42 30.36 106.27 30.85 106.01 31.37C105.75 31.9 105.48 32.33 105.19 32.68C104.56 33.43 103.8 33.97 102.92 34.29C102.04 34.61 101.12 34.78 100.16 34.78C99.12 34.78 98.23 34.61 97.47 34.28C96.71 33.95 96.03 33.5 95.44 32.94C94.69 32.21 94.12 31.34 93.73 30.32C93.34 29.3 93.14 28.18 93.14 26.95C93.14 25.74 93.32 24.62 93.67 23.6C94.02 22.57 94.57 21.7 95.3 20.97C95.86 20.39 96.53 19.93 97.33 19.59C98.13 19.24 99.04 19.07 100.08 19.07C101.19 19.07 102.23 19.3 103.19 19.75C104.15 20.2 104.94 20.9 105.55 21.84C106.11 22.67 106.46 23.51 106.61 24.36C106.76 25.21 106.84 26.11 106.84 27.05ZM103.24 25.44C103.22 24.35 102.91 23.47 102.32 22.82C102.07 22.55 101.76 22.34 101.38 22.19C101.01 22.04 100.56 21.96 100.04 21.96C99.48 21.96 98.99 22.07 98.57 22.28C98.15 22.49 97.8 22.77 97.53 23.11C97.26 23.44 97.07 23.78 96.95 24.15C96.83 24.52 96.77 24.95 96.75 25.44H103.24Z" fill="#FFF29B"/>
<path d="M123.25 34.25C122.94 34.38 122.68 34.49 122.46 34.55C122.24 34.62 121.91 34.65 121.47 34.65C120.68 34.65 120.08 34.44 119.66 34.02C119.24 33.6 119 33.11 118.94 32.55C118.59 33.16 118.02 33.69 117.21 34.13C116.4 34.57 115.46 34.79 114.39 34.79C113.49 34.79 112.7 34.66 112.03 34.4C111.36 34.14 110.8 33.8 110.35 33.36C109.9 32.93 109.56 32.43 109.33 31.86C109.1 31.29 108.98 30.7 108.98 30.09C108.98 29.38 109.11 28.75 109.37 28.19C109.63 27.63 109.99 27.15 110.45 26.75C110.91 26.35 111.45 26.04 112.06 25.81C112.67 25.59 113.34 25.45 114.05 25.39L118.45 25.07V24.15C118.45 23.44 118.28 22.87 117.95 22.44C117.62 22.01 116.94 21.79 115.92 21.79C115.08 21.79 114.42 21.97 113.95 22.34C113.48 22.71 113.23 23.23 113.19 23.92H109.71C109.77 23.08 109.96 22.35 110.3 21.73C110.64 21.12 111.08 20.61 111.64 20.22C112.2 19.83 112.84 19.53 113.57 19.34C114.3 19.15 115.09 19.05 115.93 19.05C117.22 19.05 118.36 19.28 119.37 19.73C120.38 20.18 121.1 20.97 121.54 22.11C121.73 22.59 121.85 23.09 121.9 23.61C121.95 24.13 121.97 24.64 121.97 25.14V30.7C121.97 31.05 122.03 31.29 122.16 31.43C122.28 31.57 122.5 31.65 122.81 31.65C122.96 31.65 123.07 31.64 123.13 31.62C123.19 31.62 123.24 31.61 123.27 31.59V34.25H123.25ZM118.44 27.77L114.64 28.06C114.08 28.1 113.58 28.28 113.14 28.61C112.7 28.94 112.48 29.41 112.48 30.02C112.48 30.6 112.7 31.05 113.13 31.39C113.56 31.73 114.06 31.89 114.61 31.89C115.74 31.89 116.66 31.6 117.37 31.01C118.08 30.42 118.43 29.58 118.43 28.46V27.77H118.44Z" fill="#FFF29B"/>
<path d="M135.11 22.79C134.67 22.69 134.26 22.65 133.87 22.65C132.6 22.65 131.64 23.05 130.99 23.86C130.34 24.67 130.01 25.67 130.01 26.88V34.42H126.38V19.45H129.43L129.75 21.7C130.1 20.84 130.67 20.21 131.46 19.83C132.25 19.45 133.1 19.25 133.98 19.25C134.34 19.25 134.72 19.28 135.1 19.34V22.79H135.11Z" fill="#FFF29B"/>
<path d="M147.05 34.42V25.24C147.05 24.36 146.88 23.67 146.53 23.17C146.18 22.67 145.53 22.42 144.57 22.42C143.94 22.42 143.41 22.6 142.99 22.95C142.57 23.31 142.23 23.76 141.98 24.32C141.73 24.88 141.59 25.52 141.55 26.26C141.51 27 141.49 27.68 141.49 28.32V34.42H137.89V19.45H140.91L141.17 21.38C141.61 20.59 142.24 20.01 143.06 19.64C143.88 19.27 144.72 19.08 145.58 19.08C146.39 19.08 147.1 19.21 147.72 19.48C148.34 19.75 148.87 20.12 149.3 20.59C149.73 21.06 150.06 21.63 150.29 22.29C150.52 22.95 150.64 23.67 150.64 24.44V34.43H147.05V34.42Z" fill="#FFF29B"/>
<path d="M50 0H0V50H50V0Z" fill="#FFF29B"/>
<path d="M21.2781 18.0678V24.057H33.0959V27.7889H21.2781V37.7307H17.0847V14.2657H33.748V18.0578H21.2781V18.0678Z" fill="#111111"/>
</svg>
